<?xml version="1.0" standalone="no"?>
<!DOCTYPE svg PUBLIC "-//W3C//DTD SVG 20010904//EN"
 "http://www.w3.org/TR/2001/REC-SVG-20010904/DTD/svg10.dtd">
<svg version="1.0" xmlns="http://www.w3.org/2000/svg"
 width="512.000000pt" height="512.000000pt" viewBox="0 0 512.000000 512.000000"
 preserveAspectRatio="xMidYMid meet">
<metadata>
Created by potrace 1.14, written by Peter Selinger 2001-2017
</metadata>
<g transform="translate(0.000000,512.000000) scale(0.100000,-0.100000)"
fill="#000000" stroke="none">
<path d="M1579 4697 c-129 -107 -267 -269 -366 -427 -137 -220 -194 -401 -269
-849 -24 -145 -45 -265 -46 -266 -2 -2 -75 -33 -163 -70 -336 -140 -464 -231
-511 -362 -29 -81 -11 -166 53 -250 65 -86 262 -203 512 -305 94 -38 106 -46
113 -73 4 -16 25 -137 47 -267 60 -358 103 -512 192 -689 96 -193 263 -411
409 -535 82 -70 118 -90 126 -71 2 7 -29 96 -69 198 -188 467 -281 814 -307
1146 -7 81 -8 161 -3 193 l8 55 820 13 820 13 883 -58 c636 -41 888 -54 900
-46 20 12 25 33 14 51 -5 7 -338 130 -741 272 -403 142 -735 261 -739 264 -3
3 -3 8 0 11 3 3 318 116 699 250 382 135 713 252 736 261 48 17 64 47 39 72
-14 15 -92 11 -893 -41 l-878 -58 -830 12 c-456 7 -832 14 -835 16 -11 10 -1
296 15 398 45 299 137 610 304 1021 33 83 61 156 61 163 0 25 -40 8 -101 -42z"/>
</g>
</svg>
